<?xml version="1.0" encoding="utf-8"?>
<svg xmlns="http://www.w3.org/2000/svg" width="1233" height="295" viewBox="0 0 1233 295" fill="none">
<path d="M236.95 263.861C237.341 263.861 237.513 264.358 237.201 264.596C212.348 283.664 181.247 295 147.5 295C113.752 295 82.6518 283.667 57.7981 264.596C57.4867 264.358 57.6588 263.861 58.0494 263.861H236.953H236.95ZM275.426 220.977C270.274 229.928 264.208 238.286 257.36 245.926C257.1 246.216 256.729 246.38 256.341 246.38H38.6614C38.2735 246.38 37.902 246.216 37.6425 245.926C30.792 238.286 24.7281 229.928 19.5765 220.977C19.3662 220.614 19.6312 220.158 20.0518 220.158H274.95C275.371 220.158 275.636 220.614 275.426 220.977ZM292.082 176.836C290.329 185.52 287.813 193.927 284.609 201.988C284.442 202.403 284.038 202.676 283.59 202.676H11.4094C10.9615 202.676 10.5572 202.403 10.3906 201.988C7.18657 193.93 4.67088 185.522 2.91727 176.836C2.84899 176.498 3.10848 176.181 3.45537 176.181H291.544C291.888 176.181 292.151 176.498 292.082 176.836ZM146.503 0.00328822C228.422 -0.537544 294.999 65.7062 294.999 147.5C294.999 151.095 294.871 154.659 294.62 158.191C294.601 158.478 294.36 158.699 294.073 158.699H0.928759C0.641954 158.699 0.401584 158.478 0.382464 158.191C0.131168 154.706 0.00278846 151.185 5.69817e-05 147.634C-0.0709614 67.3806 66.252 0.535926 146.503 0.00328822Z" fill="#FF983B"/>
<path d="M383.059 58.3397H464.051C502.535 58.3397 521.013 76.0989 521.013 104.284C521.013 122.809 510.878 136.268 496.718 142.6C514.197 147.666 528.357 161.39 528.357 183.95C528.357 216.17 506.089 234.459 464.051 234.459H383.059V58.3397ZM454.944 87.526H419.251V131.173H454.944C474.421 131.173 484.056 125.342 484.056 109.349C484.056 93.3574 474.45 87.526 454.944 87.526ZM460.526 158.828H419.28V205.273H460.526C480.531 205.273 491.401 198.94 491.401 182.183C491.401 165.425 480.502 158.828 460.526 158.828Z" fill="black"/>
<path d="M624.686 234.148V214.516C615.515 229.357 598.179 236.66 578.537 236.66C554.072 236.66 534.961 223.572 534.961 199.908C534.961 177.764 551.794 165.172 576.495 160.878L622.378 153.078V150.068C622.378 136.484 612.172 130.436 597.647 130.436C582.353 130.436 574.957 137.243 573.951 147.819H539.547C540.819 121.146 562.237 106.772 597.677 106.772C636.667 106.772 656.043 122.636 656.043 155.853V234.148H624.686ZM622.408 182.292V176.508L588.003 182.555C574.247 184.834 567.857 188.836 567.857 198.418C567.857 206.715 575.253 212.003 588.003 212.003C604.569 212.003 622.408 201.428 622.408 182.292Z" fill="black"/>
<path d="M724.643 106.772C754.948 106.772 780.975 119.595 781.473 147.05H747.621C746.859 137.733 738.535 130.431 723.617 130.431C711.483 130.431 702.895 135.455 702.895 143.02C702.895 150.584 708.699 152.833 719.572 154.849L748.119 160.398C770.863 164.663 783.729 176.258 783.729 196.383C783.729 220.8 763.77 236.66 726.899 236.66C690.029 236.66 668.311 220.304 667.051 193.871H702.397C703.394 204.444 711.483 213.002 728.16 213.002C743.576 213.002 750.874 207.219 750.874 199.917C750.874 192.615 745.071 189.606 734.197 187.591L705.65 182.304C682.936 178.04 670.04 166.211 670.04 146.057C670.04 121.902 692.022 106.802 724.584 106.802L724.643 106.772Z" fill="black"/>
<path d="M853.735 106.772C894.085 106.772 918.02 130.694 918.02 170.942V181.779H822.719C823.479 197.142 835.066 211.483 853.471 211.483C866.843 211.483 877.933 204.94 880.947 193.871H916.235C910.705 221.56 885.717 236.66 853.442 236.66C816.135 236.66 788.132 213.498 788.132 171.731C788.132 132.709 813.589 106.802 853.676 106.802L853.735 106.772ZM883.464 158.617C882.703 142.523 870.091 130.927 854.466 130.927C837.32 130.927 824.972 143.75 822.953 158.617H883.464Z" fill="black"/>
<path d="M1042.31 234.459V197.91H955.446V168.458L1035.49 58.3397H1076.53V234.459H1042.31ZM1042.31 96.1553L990.133 169.254H1042.31V96.1553Z" fill="black"/>
<path d="M1176.92 197.886H1089.74V168.44L1170.05 58.3397H1211.24V169.235H1232.83V197.916H1211.24V234.459H1176.92V197.886ZM1176.92 96.1489L1124.55 169.235H1176.92V96.1489Z" fill="black"/>
</svg>